<svg width="57" height="64" viewBox="0 0 57 64" fill="none" xmlns="http://www.w3.org/2000/svg">
<g clip-path="url(#clip0_1_10)">
<path d="M25.2 22.4C21 23.8 17.3 27.9 17.3 32.6C17.3 37.6 20.9 42.1 25.8 43V39.6L38 51.3L25.4 64V60.2C11.4 58.6 0.5 46.7 0.5 32.2C0.5 18.2 10.7 6.5 24.2 4.3L15.6 12.7L25.2 22.4Z" fill="#F3932A"/>
<path d="M32.1 41.6C36.7 40.2 39.9 36.1 39.8 31.5C39.7 26.5 36 22.1 31.1 21.3L31.2 24.7L19.1 12.8L31.1 0.5V4.1C45.2 5.4 56.3 17.1 56.6 31.5C56.9 45.5 46.4 57.5 33.1 60L41.7 51.1L32.1 41.6Z" fill="#DA549D"/>
</g>
<defs>
<clipPath id="clip0_1_10">
<rect width="57" height="64" fill="white"/>
</clipPath>
</defs>
</svg>
